<svg width="130" height="130" viewBox="0 0 130 130" fill="none" xmlns="http://www.w3.org/2000/svg">
<path d="M129.8 64.81C129.8 80.2 124.43 94.34 115.46 105.45C110.69 111.38 104.89 116.44 98.34 120.37C96.86 121.27 95.3299 122.11 93.7699 122.88C85.1099 127.18 75.34 129.6 65 129.6C54.66 129.6 44.8899 127.18 36.2299 122.88C34.67 122.11 33.14 121.27 31.66 120.37C25.11 116.44 19.3099 111.38 14.5399 105.45C5.56995 94.34 0.199951 80.2 0.199951 64.81C0.199951 29.02 29.21 0.0100098 65 0.0100098C100.79 0.0100098 129.8 29.02 129.8 64.81Z" fill="#D7EAF1"/>
<path d="M87.523 34.326C87.351 32.162 85.964 31.405 85.964 31.405C85.856 29.89 84.449 29.241 84.449 29.241C83.908 27.726 82.177 27.294 82.177 27.294C81.528 25.779 79.472 25.725 79.472 25.725C78.715 24.372 76.767 24.59 76.767 24.59C75.902 23.4 73.413 23.508 73.413 23.508C72.764 22.21 70.059 22.642 70.059 22.642C68.977 21.452 67.03 22.426 67.03 22.426C66.597 20.803 65 22.088 65 22.088C65 22.088 63.402 20.803 62.969 22.426C62.969 22.426 61.022 21.452 59.94 22.642C59.94 22.642 57.235 22.209 56.586 23.508C56.586 23.508 54.098 23.4 53.232 24.59C53.232 24.59 51.285 24.372 50.527 25.725C50.527 25.725 48.471 25.78 47.822 27.294C47.822 27.294 46.091 27.727 45.55 29.241C45.55 29.241 44.144 29.89 44.035 31.405C44.035 31.405 42.647 32.162 42.476 34.326C42.304 36.49 43.131 38.113 46.829 39.735C58.252 33.953 71.745 33.953 83.169 39.735C86.868 38.113 87.694 36.49 87.523 34.326Z" fill="#051733"/>
<path d="M73.675 26.6071H56.326C48.678 26.6071 42.478 32.8071 42.478 40.4551V50.9041H87.524V40.4551C87.523 32.8071 81.323 26.6071 73.675 26.6071Z" fill="#051733"/>
<path d="M115.46 105.45C110.69 111.38 104.89 116.44 98.34 120.37C96.86 121.27 95.33 122.11 93.77 122.88C85.11 127.18 75.34 129.6 65 129.6C54.66 129.6 44.89 127.18 36.23 122.88C34.67 122.11 33.14 121.27 31.66 120.37C25.11 116.44 19.31 111.38 14.54 105.45C16.28 99.68 20.87 95.13 26.78 93.5L42.31 89.21L43.94 88.76L46.83 87.96L52.75 86.32L55.11 73.11L55.16 72.81L55.2 72.55L55.9601 68.32L65 71.86L74.0401 68.32L74.8 72.55L75.37 75.8L76.3801 81.47L77.25 86.32L83.1701 87.96L86.06 88.76L87.69 89.21L103.22 93.5C109.13 95.13 113.72 99.68 115.46 105.45Z" fill="#4749D6"/>
<path d="M86.0599 88.76C85.4299 91.64 82.5899 99.68 70.5199 100.6L67.8999 110.3C67.5399 111.61 66.3599 112.52 64.9999 112.52C63.6499 112.52 62.4599 111.61 62.0999 110.3L59.4799 100.6C47.3999 99.68 44.5699 91.64 43.9399 88.76L46.8299 87.96L52.7499 86.32L55.9599 68.32L64.9999 71.86L74.0399 68.32L77.2499 86.32L83.17 87.96L86.0599 88.76Z" fill="#3537A1"/>
<path d="M83.1701 87.96C82.5601 91.01 79.9001 97.69 68.2001 97.69L65.0001 109.52L61.8001 97.69C50.1001 97.69 47.4401 91.01 46.8301 87.96L52.7501 86.32L55.1101 73.11L55.9601 68.32L65.0001 71.86L74.0401 68.32L76.3801 81.47L77.2501 86.32L83.1701 87.96Z" fill="#F69779"/>
<path d="M76.3801 81.47C73.4001 82.43 71.1501 82.43 71.1501 82.43C71.1501 82.43 60.9101 82.43 55.1101 73.11L55.9601 68.32L65.0001 71.86L74.0401 68.32L76.3801 81.47Z" fill="#F37A67"/>
<path d="M89.4282 48.775C89.3062 47.977 89.0112 47.167 88.4022 46.637C87.8532 46.159 87.0971 45.962 86.3701 45.993C85.6431 46.024 84.9391 46.267 84.2841 46.584C84.2841 46.584 84.2201 33.149 77.6851 32.934C73.4001 32.72 71.4932 34.005 65.0012 34.005C58.5082 34.005 56.6021 32.719 52.3171 32.934C45.7821 33.148 45.7181 46.584 45.7181 46.584C45.0631 46.267 44.3592 46.024 43.6322 45.993C42.9052 45.962 42.1492 46.159 41.6002 46.637C40.9912 47.166 40.6952 47.977 40.5742 48.775C40.3302 50.376 40.7131 52.065 41.6251 53.404C42.5361 54.743 43.8821 55.75 45.4611 56.111C48.2451 75.61 65.0001 75.61 65.0001 75.61C65.0001 75.61 81.7551 75.61 84.5411 56.112C86.1201 55.751 87.4662 54.744 88.3772 53.405C89.2882 52.065 89.6712 50.376 89.4282 48.775Z" fill="#F69779"/>
<path d="M36.2301 122.88C34.6701 122.11 33.1402 121.27 31.6602 120.37L35.7502 108L36.2301 122.88Z" fill="#3537A1"/>
<path d="M98.34 120.37C96.86 121.27 95.33 122.11 93.77 122.88L94.25 108L98.34 120.37Z" fill="#3537A1"/>
<path d="M64.061 48.23V59.671H66C69.323 59.671 64.678 49.545 64.061 48.23Z" fill="#F37A67"/>
<path d="M78.1581 43.773C75.4781 42.449 72.5001 42.253 69.7061 43.363C68.5231 43.834 69.0381 45.769 70.2381 45.292C72.5271 44.382 74.9241 44.401 77.1491 45.5C78.3011 46.069 79.3141 44.344 78.1581 43.773Z" fill="#051733"/>
<path d="M73.8592 50.116C74.9008 50.116 75.7451 49.2716 75.7451 48.23C75.7451 47.1884 74.9008 46.344 73.8592 46.344C72.8176 46.344 71.9731 47.1884 71.9731 48.23C71.9731 49.2716 72.8176 50.116 73.8592 50.116Z" fill="#051733"/>
<path d="M51.842 43.773C54.522 42.449 57.5011 42.253 60.2941 43.363C61.4771 43.834 60.962 45.769 59.762 45.292C57.473 44.382 55.076 44.401 52.851 45.5C51.699 46.069 50.686 44.344 51.842 43.773Z" fill="#051733"/>
<path d="M56.1411 50.116C57.1827 50.116 58.0271 49.2716 58.0271 48.23C58.0271 47.1884 57.1827 46.344 56.1411 46.344C55.0995 46.344 54.2551 47.1884 54.2551 48.23C54.2551 49.2716 55.0995 50.116 56.1411 50.116Z" fill="#051733"/>
<path d="M58.854 64.345C59.519 66.827 62.014 68.675 65 68.675C67.985 68.675 70.481 66.827 71.146 64.345H58.854Z" fill="white"/>
</svg>
